<svg height="512pt" viewBox="-44 0 512 512" width="512pt" xmlns="http://www.w3.org/2000/svg"><path d="m188.675781 448.902344h-31.933593c-86.566407 0-156.742188-70.175782-156.742188-156.742188v-135.417968c0-86.566407 70.175781-156.742188 156.742188-156.742188h31.929687c86.566406 0 156.742187 70.175781 156.742187 156.742188v135.417968c0 86.566406-70.175781 156.742188-156.738281 156.742188zm0 0" fill="#bce8f1"/><path d="m188.675781 0h-31.933593c-3.953126 0-7.867188.148438-11.746094.4375 81.082031 6.007812 144.996094 73.691406 144.996094 156.304688v135.417968c0 82.613282-63.914063 150.296875-144.996094 156.304688 3.878906.285156 7.792968.4375 11.746094.4375h31.933593c86.5625 0 156.738281-70.175782 156.738281-156.742188v-135.417968c0-86.566407-70.175781-156.742188-156.738281-156.742188zm0 0" fill="#95dae8"/><path d="m168.558594 392.800781h-48.75c-4.289063 0-7.761719-3.476562-7.761719-7.761719 0-4.285156 3.472656-7.761718 7.761719-7.761718h48.75c67.839844 0 123.03125-55.191406 123.03125-123.03125v-86.796875c0-52.761719-42.925782-95.6875-95.683594-95.6875h-43.402344c-52.761718 0-95.683594 42.925781-95.683594 95.6875v81.445312c0 50.796875 41.324219 92.121094 92.117188 92.121094h17.539062c48.992188 0 88.847657-39.859375 88.847657-88.851563v-81.742187c0-35.390625-28.789063-64.179687-64.175781-64.179687h-34.484376c-35.386718 0-64.175781 28.792968-64.175781 64.179687v71.933594c0 35.386719 28.789063 64.175781 64.175781 64.175781 35.390626 0 64.179688-28.789062 64.179688-64.175781v-65.695313c0-18.832031-15.324219-34.152344-34.15625-34.152344h-23.78125c-18.832031 0-34.152344 15.320313-34.152344 34.152344v66.238282c0 15.03125 12.230469 27.261718 27.265625 27.261718h1.292969c15.035156 0 27.261719-12.230468 27.261719-27.261718v-53.75c0-5.722657-4.652344-10.375-10.371094-10.375s-10.375 4.652343-10.375 10.375v51.421874c0 4.289063-3.472656 7.761719-7.757813 7.761719-4.285156 0-7.761718-3.472656-7.761718-7.761719v-51.421874c0-14.277344 11.617187-25.894532 25.894531-25.894532s25.894531 11.613282 25.894531 25.894532v53.75c0 23.589843-19.195312 42.785156-42.785156 42.785156h-1.292969c-23.589843 0-42.785156-19.195313-42.785156-42.785156v-66.238282c0-27.386718 22.285156-49.671875 49.671875-49.671875h23.78125c27.390625 0 49.675781 22.285157 49.675781 49.671875v65.695313c0 43.945312-35.753906 79.695312-79.699219 79.695312-43.941406 0-79.695312-35.75-79.695312-79.695312v-71.933594c0-43.945313 35.753906-79.699219 79.695312-79.699219h34.484376c43.945312 0 79.695312 35.753906 79.695312 79.699219v81.742187c0 57.550782-46.820312 104.367188-104.367188 104.367188h-17.539062c-59.351562 0-107.636719-48.285156-107.636719-107.636719v-81.449219c0-61.316406 49.886719-111.203124 111.203125-111.203124h43.398438c61.320312 0 111.207031 49.886718 111.207031 111.203124v86.800782c0 76.398437-62.15625 138.554687-138.550781 138.554687zm0 0" fill="#738c96"/><path d="m313.855469 306.625.042969 54.175781c0 1.589844.9375 3.054688 2.410156 3.660157 9.574218 3.957031 16.3125 13.375 16.324218 24.378906.011719 11-6.710937 20.433594-16.277343 24.40625-1.46875.613281-2.402344 2.078125-2.402344 3.667968l.019531 9.433594c0 1.0625.421875 2.078125 1.175782 2.828125l23.449218 23.40625c1.566406 1.558594 1.566406 4.09375.007813 5.65625l-23.40625 23.449219c-.75.753906-1.171875 1.769531-1.167969 2.832031l.019531 23.484375c.003907 2.207032 1.796875 3.996094 4.003907 3.996094l47.996093-.046875c2.210938-.003906 4-1.796875 3.996094-4.003906l-.191406-201.378907c-.003907-2.210937-1.796875-4-4.003907-3.996093l-48 .046875c-2.207031.003906-3.996093 1.796875-3.996093 4.003906zm0 0" fill="#8f8f99"/><path d="m365.847656 302.574219-12.773437.011719.183593 192.191406c.003907 2.207031-1.785156 4-3.996093 4.003906l-35.222657.03125.011719 9.191406c0 2.210938 1.792969 4 4.003907 3.996094l47.996093-.046875c2.210938-.003906 4-1.796875 3.996094-4.003906l-.195313-201.378907c0-2.207031-1.792968-3.996093-4.003906-3.996093zm0 0" fill="#777784"/><path d="m342.042969 167.46875c-45.742188 0-82.828125 37.085938-82.828125 82.828125s37.085937 82.828125 82.828125 82.828125c45.742187 0 82.828125-37.085938 82.828125-82.828125s-37.082032-82.828125-82.828125-82.828125zm0 76.234375c-13.707031 0-24.820313-11.113281-24.820313-24.820313 0-13.707031 11.113282-24.820312 24.820313-24.820312s24.820312 11.113281 24.820312 24.820312c0 13.707032-11.113281 24.820313-24.820312 24.820313zm0 0" fill="#8f8f99"/><path d="m365.90625 170.976562c18.769531 15.183594 30.777344 38.390626 30.777344 64.414063 0 45.742187-37.082032 82.824219-82.828125 82.824219-8.296875 0-16.304688-1.234375-23.863281-3.503906 14.226562 11.507812 32.328124 18.414062 52.050781 18.414062 45.746093 0 82.828125-37.082031 82.828125-82.828125 0-37.445313-24.855469-69.074219-58.964844-79.320313zm0 0" fill="#777784"/></svg>