<svg height="512" viewBox="0 0 512 512" width="512" xmlns="http://www.w3.org/2000/svg" xmlns:xlink="http://www.w3.org/1999/xlink"><linearGradient id="a" gradientUnits="userSpaceOnUse" x1="-139.531" x2="402.211" y1="383.531" y2="-158.211" data-name="New Gradient Swatch 1"><stop offset="0" stop-color="#003f8a"/><stop offset=".518" stop-color="#00d7df"/><stop offset="1" stop-color="#006df0"/></linearGradient><linearGradient id="b" x1="-83.531" x2="458.211" xlink:href="#a" y1="439.531" y2="-102.211"/><linearGradient id="c" x1="-127.531" x2="414.211" xlink:href="#a" y1="395.531" y2="-146.211"/><linearGradient id="d" x1="-71.531" x2="470.211" xlink:href="#a" y1="451.531" y2="-90.211"/><linearGradient id="e" x1="-115.531" x2="426.211" xlink:href="#a" y1="407.531" y2="-134.211"/><linearGradient id="f" x1="-59.531" x2="482.211" xlink:href="#a" y1="463.531" y2="-78.211"/><linearGradient id="g" x1="-103.531" x2="438.211" xlink:href="#a" y1="419.531" y2="-122.211"/><linearGradient id="h" x1="-47.531" x2="494.211" xlink:href="#a" y1="475.531" y2="-66.211"/><linearGradient id="i" x1="22.469" x2="564.211" xlink:href="#a" y1="545.532" y2="3.789"/><g><path d="m176 64h-8a8 8 0 0 0 0 16h8a8 8 0 0 0 0-16z" fill="url(#a)"/><path d="m224 80h120a8 8 0 0 0 0-16h-120a8 8 0 0 0 0 16z" fill="url(#b)"/><path d="m176 88h-8a8 8 0 0 0 0 16h8a8 8 0 0 0 0-16z" fill="url(#c)"/><path d="m224 104h120a8 8 0 0 0 0-16h-120a8 8 0 0 0 0 16z" fill="url(#d)"/><path d="m176 112h-8a8 8 0 0 0 0 16h8a8 8 0 0 0 0-16z" fill="url(#e)"/><path d="m224 128h120a8 8 0 0 0 0-16h-120a8 8 0 0 0 0 16z" fill="url(#f)"/><path d="m176 136h-8a8 8 0 0 0 0 16h8a8 8 0 0 0 0-16z" fill="url(#g)"/><path d="m224 152h120a8 8 0 0 0 0-16h-120a8 8 0 0 0 0 16z" fill="url(#h)"/><path d="m488 168h-8v-24a8 8 0 0 0 -8-8h-88v-120a8 8 0 0 0 -13-6.25l-15 12.01-15.01-12.01a8.027 8.027 0 0 0 -10 0l-15 12-15-12a8.027 8.027 0 0 0 -10 0l-15.01 12.01-15-12.01a8.027 8.027 0 0 0 -10 0l-15 12-14.99-12a8.027 8.027 0 0 0 -10 0l-15 12-15-12a8.027 8.027 0 0 0 -10 0l-15 12-14.99-12a8.006 8.006 0 0 0 -13 6.25v120h-3.72l-13.62-20.44a8.033 8.033 0 0 0 -6.66-3.56h-64a8 8 0 0 0 -8 8v48h-8a8 8 0 0 0 -8 8v320a8 8 0 0 0 8 8h464a8 8 0 0 0 8-8v-320a8 8 0 0 0 -8-8zm-104-16h80v16h-80zm-240-119.35 6.99 5.6a8.013 8.013 0 0 0 10 0l15-12 15 12a8.027 8.027 0 0 0 10 0l15-12 14.99 12a8.013 8.013 0 0 0 10 0l15-12 15 12a8.027 8.027 0 0 0 10 0l15.01-12.01 15 12.01a8.027 8.027 0 0 0 10 0l15-12.01 15.01 12.01a8.027 8.027 0 0 0 10 0l7-5.61v135.36h-160v-104a8 8 0 0 0 -16 0v104h-48zm-96 95.35h51.72l13.62 20.44a8.033 8.033 0 0 0 6.66 3.56h8v16h-80zm432 360h-448v-304h448z" fill="url(#i)"/></g></svg>