<svg id="Layer_5" enable-background="new 0 0 64 64" height="512" viewBox="0 0 64 64" width="512" xmlns="http://www.w3.org/2000/svg" xmlns:xlink="http://www.w3.org/1999/xlink"><linearGradient id="SVGID_1_" gradientUnits="userSpaceOnUse" x1="32" x2="32" y1="63" y2="1"><stop offset="0" stop-color="#9f2fff"/><stop offset="1" stop-color="#0bb1d3"/></linearGradient><path d="m17 20c0 .552-.448 1-1 1s-1-.448-1-1 .448-1 1-1 1 .448 1 1zm9 1c.552 0 1-.448 1-1s-.448-1-1-1-1 .448-1 1 .448 1 1 1zm-14 38h8v-2h-8zm-7 0h2v-2h-2zm20 0h2v-2h-2zm-20-8v-24h22v24zm20-22h-10v8h-8v12h18zm-18 0v6h6v-6zm4 2h-2v2h2zm12 6v-2h-4v-4h-2v6zm0-6h-2v2h2zm-10 12v-4h-4v2h2v2zm4 0h2v-4h-4v2h2zm4 2h-4v2h6v-7h-2zm-8 2h2v-2h-2zm-4 0h2v-2h-2zm22-38h-2v2h2zm14 4h-6v-4h-2v6h8zm0-4h-4v2h4zm-6 12h2v-4h-8v2h6zm4 2h-6v2h8v-7h-2zm9.414-22 10.586 10.586v47.414h-32.101c-.465 2.279-2.484 4-4.899 4h-20c-2.757 0-5-2.243-5-5v-38c0-2.757 2.243-5 5-5h15v-14zm.586 10h6.586l-6.586-6.586zm-37 12c1.654 0 3-1.346 3-3v-3h-6v3c0 1.654 1.346 3 3 3zm-13 2v28h26v-28zm28-5v7h16v-20h-12v8h-8v.101c2.279.465 4 2.485 4 4.899zm2-13h-6v6h6zm-12 10v3c0 1.13-.391 2.162-1.026 3h9.026v-3c0-1.654-1.346-3-3-3zm-18 3v3h9.026c-.635-.838-1.026-1.87-1.026-3v-3h-5c-1.654 0-3 1.346-3 3zm26 38v-3h-26v3c0 1.654 1.346 3 3 3h20c1.654 0 3-1.346 3-3zm32-1v-44h-10v-10h-28v12h2v-10h24v24h-18v28zm-26-36h-2v4h2zm-2 20h26v14h-26zm2 12h22v-10h-22zm18-5c0 1.654-1.346 3-3 3s-3-1.346-3-3 1.346-3 3-3 3 1.346 3 3zm-2 0c0-.552-.449-1-1-1s-1 .448-1 1 .449 1 1 1 1-.448 1-1zm-6 0c0 1.654-1.346 3-3 3s-3-1.346-3-3 1.346-3 3-3 3 1.346 3 3zm-2 0c0-.552-.449-1-1-1s-1 .448-1 1 .449 1 1 1 1-.448 1-1zm-8-17h-2v2h2zm2 2h22v-2h-22zm-4 4h26v-2h-26zm18-20h8v-2h-8zm0 4h8v-2h-8zm0 4h8v-2h-8zm0 4h8v-2h-8z" fill="url(#SVGID_1_)"/></svg>