<svg id="Capa_1" enable-background="new 0 0 512 512" height="512" viewBox="0 0 512 512" width="512" xmlns="http://www.w3.org/2000/svg"><g><g><path d="m323.174 360.083h-305.674c-5.523 0-10-4.477-10-10v-226.896h325.674v226.896c0 5.523-4.477 10-10 10z" fill="#75cff9"/><path d="m306.174 123.187v226.896c0 5.523-4.477 10-10 10h27c5.523 0 10-4.477 10-10v-226.896z" fill="#6cbff8"/><path d="m323.174 60.535h-305.674c-5.523 0-10 4.477-10 10v52.652h325.674v-52.652c0-5.523-4.477-10-10-10z" fill="#4980ac"/><path d="m323.174 60.535h-27c5.523 0 10 4.477 10 10v52.652h27v-52.652c0-5.523-4.477-10-10-10z" fill="#407194"/><g fill="#ddebfd"><path d="m98.145 29.055c-8.357 0-15.132 6.775-15.132 15.132v32.423c0 8.357 6.775 15.132 15.132 15.132s15.132-6.775 15.132-15.132v-32.423c0-8.357-6.775-15.132-15.132-15.132z"/><path d="m242.529 29.055c-8.357 0-15.132 6.775-15.132 15.132v32.423c0 8.357 6.775 15.132 15.132 15.132s15.132-6.775 15.132-15.132v-32.423c0-8.357-6.775-15.132-15.132-15.132z"/></g><path d="m495.298 482.945h-243.235c-5.082 0-9.202-4.12-9.202-9.202v-153.296c0-5.082 4.12-9.202 9.202-9.202h243.234c5.082 0 9.202 4.12 9.202 9.202v153.295c.001 5.083-4.119 9.203-9.201 9.203z" fill="#ddebfd"/><path d="m495.298 311.245h-27c5.082 0 9.202 4.12 9.202 9.202v153.295c0 5.082-4.12 9.202-9.202 9.202h-216.235 243.234c5.082 0 9.202-4.12 9.202-9.202v-153.295c.001-5.082-4.119-9.202-9.201-9.202z" fill="#bed9fd"/><path d="m420.599 372.651 17.904 17.904c3.124 3.124 8.19 3.124 11.314 0l17.904-17.904c3.124-3.124 3.124-8.19 0-11.314l-17.904-17.904c-3.124-3.124-8.19-3.124-11.314 0l-17.904 17.904c-3.124 3.124-3.124 8.189 0 11.314z" fill="#e175a5"/><path d="m317.301 387.246h-37.001c-2.761 0-5-2.239-5-5v-33.001c0-2.761 2.239-5 5-5h37.001c2.761 0 5 2.239 5 5v33.001c0 2.761-2.239 5-5 5z" fill="#eec06b"/></g><g><path d="m179.46 296.974c-9.997 0-19.79-2.691-28.319-7.784-6.558-3.915-12.149-9.046-16.619-15.252-2.42-3.361-7.107-4.123-10.469-1.703-3.361 2.421-4.124 7.108-1.703 10.469 5.675 7.878 12.774 14.394 21.103 19.366 10.854 6.479 23.305 9.904 36.008 9.904 38.785 0 70.339-31.554 70.339-70.339s-31.554-70.339-70.339-70.339c-32.692 0-60.244 22.419-68.095 52.689l-7.298-8.511c-2.696-3.145-7.431-3.507-10.576-.811-3.144 2.696-3.507 7.431-.811 10.576l18.247 21.279c1.353 1.578 3.464 2.635 5.776 2.614 1.414-.015 2.402-.383 3.492-.901l24.764-12.831c3.678-1.906 5.115-6.432 3.21-10.109s-6.431-5.114-10.109-3.21l-12.347 6.396c5.921-24.181 27.766-42.182 53.746-42.182 30.514 0 55.339 24.825 55.339 55.339s-24.824 55.34-55.339 55.34z"/><path d="m504.5 428.491c4.142 0 7.5-3.358 7.5-7.5v-100.544c0-9.21-7.493-16.703-16.703-16.703h-154.627v-233.214c0-9.649-7.851-17.5-17.5-17.5h-58.009v-8.843c0-12.479-10.153-22.632-22.632-22.632s-22.632 10.153-22.632 22.632v8.843h-99.12v-8.843c0-12.479-10.153-22.632-22.632-22.632s-22.632 10.153-22.632 22.632v8.843h-58.013c-9.649 0-17.5 7.851-17.5 17.5v104.617c0 4.142 3.358 7.5 7.5 7.5s7.5-3.358 7.5-7.5v-44.458h310.67v173.056h-73.607c-9.209 0-16.702 7.493-16.702 16.703v32.133h-217.861c-1.378 0-2.5-1.122-2.5-2.5v-139.931c0-4.142-3.358-7.5-7.5-7.5s-7.5 3.358-7.5 7.5v139.93c0 9.649 7.851 17.5 17.5 17.5h217.861v106.163c0 9.209 7.493 16.702 16.702 16.702h243.234c9.21 0 16.703-7.493 16.703-16.702v-17.751c0-4.142-3.358-7.5-7.5-7.5s-7.5 3.358-7.5 7.5v17.751c0 .938-.764 1.702-1.703 1.702h-243.234c-.938 0-1.702-.764-1.702-1.702v-153.296c0-.939.764-1.703 1.702-1.703h243.234c.939 0 1.703.764 1.703 1.703v100.544c0 4.142 3.358 7.5 7.5 7.5zm-269.603-384.304c0-4.208 3.424-7.632 7.632-7.632s7.632 3.424 7.632 7.632v32.423c0 4.208-3.424 7.632-7.632 7.632s-7.632-3.424-7.632-7.632c0-11.564 0-20.722 0-32.423zm-144.384 0c0-4.208 3.424-7.632 7.632-7.632s7.632 3.424 7.632 7.632v32.423c0 4.208-3.424 7.632-7.632 7.632s-7.632-3.424-7.632-7.632zm235.157 71.502h-310.67v-45.159c0-1.378 1.122-2.5 2.5-2.5h58.013v8.58c0 12.479 10.153 22.632 22.632 22.632s22.632-10.153 22.632-22.632v-8.58h99.12v8.58c0 12.479 10.153 22.632 22.632 22.632s22.632-10.153 22.632-22.632v-8.58h58.009c1.378 0 2.5 1.122 2.5 2.5z"/><path d="m310.341 429.238h-26.07c-4.142 0-7.5 3.358-7.5 7.5s3.358 7.5 7.5 7.5h26.07c4.142 0 7.5-3.358 7.5-7.5s-3.358-7.5-7.5-7.5z"/><path d="m368.217 429.238h-26.07c-4.142 0-7.5 3.358-7.5 7.5s3.358 7.5 7.5 7.5h26.07c4.142 0 7.5-3.358 7.5-7.5s-3.358-7.5-7.5-7.5z"/><path d="m426.093 429.238h-26.07c-4.142 0-7.5 3.358-7.5 7.5s3.358 7.5 7.5 7.5h26.07c4.142 0 7.5-3.358 7.5-7.5s-3.358-7.5-7.5-7.5z"/><path d="m329.801 382.246v-33.001c0-6.893-5.607-12.5-12.5-12.5h-37.001c-6.893 0-12.5 5.607-12.5 12.5v33.001c0 6.893 5.607 12.5 12.5 12.5h37.001c6.892 0 12.5-5.608 12.5-12.5zm-15-2.5h-32.001v-28.001h32.001z"/><path d="m444.16 400.398c-4.141 0-8.033-1.612-10.96-4.541l-17.904-17.904c-6.043-6.043-6.043-15.877 0-21.92l17.904-17.904c6.043-6.043 15.877-6.043 21.92 0l17.904 17.905c2.928 2.927 4.54 6.819 4.54 10.96s-1.612 8.033-4.541 10.96l-17.903 17.904c-2.927 2.928-6.82 4.54-10.96 4.54zm-18.257-33.05 17.904 17.903c.037.037.147.146.354.146s.318-.11.354-.146l17.904-17.904c.037-.037.146-.147.146-.354s-.11-.317-.146-.353l-17.904-17.905c-.196-.195-.513-.195-.708 0l-17.904 17.904c-.195.196-.195.514 0 .709z"/></g></g></svg>