<svg id="Capa_1" enable-background="new 0 0 512 512" height="512" viewBox="0 0 512 512" width="512" xmlns="http://www.w3.org/2000/svg"><g><g><g><g><g><g><g><g><path d="m115.856 52.806h94.514v329.651c0 17.141-13.896 31.037-31.037 31.037h-32.44c-17.141 0-31.037-13.896-31.037-31.037z" fill="#c9f0fd"/><path d="m115.856 52.806h94.515v89.322h-94.515z" fill="#9ce6fb"/><path d="m210.371 52.8v329.657c-.006 17.14-13.896 31.03-31.036 31.036h-31.553c17.146 0 31.042-13.896 31.036-31.036l.006-329.652z" fill="#9ce6fb"/><path d="m115.856 209.736v172.721c0 17.141 13.896 31.037 31.037 31.037h32.44c17.141 0 31.037-13.896 31.037-31.037v-172.721z" fill="#fb4a59"/><path d="m178.821 209.736-.004 172.722c.006 17.14-13.891 31.036-31.036 31.036h31.554c17.14-.006 31.03-13.896 31.036-31.036v-172.722z" fill="#f82f40"/><g><path d="m100.149 16.356h125.929c3.699 0 6.698 2.999 6.698 6.698v26.842c0 3.699-2.999 6.698-6.698 6.698h-125.929c-3.699 0-6.698-2.999-6.698-6.698v-26.842c-.001-3.699 2.998-6.698 6.698-6.698z" fill="#f1faff"/><path d="m232.776 23.053v26.842c0 3.696-3.001 6.697-6.697 6.697h-31.711c3.696 0 6.697-3.001 6.697-6.697v-26.842c0-3.696-3.001-6.697-6.697-6.697h31.711c3.697.001 6.697 3.002 6.697 6.697z" fill="#c9f0fd"/></g></g></g></g></g></g><g><g><g><g><g><path d="m301.629 52.806h94.514v329.651c0 17.141-13.896 31.037-31.037 31.037h-32.44c-17.141 0-31.037-13.896-31.037-31.037z" fill="#c9f0fd"/><path d="m301.629 52.806h94.514v89.322h-94.514z" fill="#9ce6fb"/><path d="m396.144 52.8v329.657c-.006 17.14-13.896 31.03-31.036 31.036h-31.553c17.146 0 31.042-13.896 31.036-31.036l.006-329.652z" fill="#9ce6fb"/><path d="m301.629 209.736v172.721c0 17.141 13.896 31.037 31.037 31.037h32.44c17.141 0 31.037-13.896 31.037-31.037v-172.721z" fill="#31a7fb"/><path d="m364.594 209.736-.004 172.722c.006 17.14-13.891 31.036-31.036 31.036h31.554c17.14-.006 31.03-13.896 31.036-31.036v-172.722z" fill="#1c96f9"/><g><path d="m285.922 16.356h125.929c3.699 0 6.698 2.999 6.698 6.698v26.842c0 3.699-2.999 6.698-6.698 6.698h-125.929c-3.699 0-6.698-2.999-6.698-6.698v-26.842c0-3.699 2.999-6.698 6.698-6.698z" fill="#f1faff"/><path d="m418.55 23.053v26.842c0 3.696-3.001 6.697-6.697 6.697h-31.711c3.696 0 6.697-3.001 6.697-6.697v-26.842c0-3.696-3.001-6.697-6.697-6.697h31.711c3.696.001 6.697 3.002 6.697 6.697z" fill="#c9f0fd"/></g></g></g></g></g></g></g><g><g><path d="m430.296 475.817h-348.591c-40.916 0-74.205-33.288-74.205-74.204v-244.416c0-40.916 33.288-74.205 74.205-74.205h348.591c40.916 0 74.204 33.288 74.204 74.205v244.416c0 40.916-33.288 74.204-74.204 74.204zm-348.591-360.128c-22.887 0-41.507 18.62-41.507 41.507v244.416c0 22.887 18.62 41.507 41.507 41.507h348.591c22.887 0 41.507-18.62 41.507-41.507v-244.415c0-22.887-18.62-41.507-41.507-41.507h-348.591z" fill="#b7c4ce"/><path d="m504.5 157.2v244.41c0 40.92-33.29 74.21-74.2 74.21h-32.7c40.54 0 73.59-32.69 74.19-73.1.01-.37.01-.74.01-1.11v-244.41c0-.37 0-.74-.01-1.11-.6-40.41-33.65-73.1-74.19-73.1h32.7c40.91 0 74.2 33.29 74.2 74.21z" fill="#a0acb9"/></g><g><g><path d="m106.278 495.644c-9.029 0-16.349-7.32-16.349-16.349v-34.309c0-9.029 7.32-16.349 16.349-16.349s16.349 7.319 16.349 16.349v34.309c-.001 9.029-7.32 16.349-16.349 16.349z" fill="#fcb44d"/></g></g><g><g><path d="m405.722 495.644c-9.029 0-16.349-7.32-16.349-16.349v-34.309c0-9.029 7.32-16.349 16.349-16.349s16.349 7.319 16.349 16.349v34.309c0 9.029-7.32 16.349-16.349 16.349z" fill="#fcb44d"/></g></g></g></g><g><path d="m157.152 138.451h-12.801c-4.142 0-7.5 3.358-7.5 7.5s3.358 7.5 7.5 7.5h12.801c4.142 0 7.5-3.358 7.5-7.5s-3.358-7.5-7.5-7.5z"/><path d="m157.152 180.853h-12.801c-4.142 0-7.5 3.358-7.5 7.5s3.358 7.5 7.5 7.5h12.801c4.142 0 7.5-3.358 7.5-7.5s-3.358-7.5-7.5-7.5z"/><path d="m144.352 238.256h12.801c4.142 0 7.5-3.358 7.5-7.5s-3.358-7.5-7.5-7.5h-12.801c-4.142 0-7.5 3.358-7.5 7.5s3.357 7.5 7.5 7.5z"/><path d="m144.352 280.658h12.801c4.142 0 7.5-3.358 7.5-7.5s-3.358-7.5-7.5-7.5h-12.801c-4.142 0-7.5 3.358-7.5 7.5s3.357 7.5 7.5 7.5z"/><path d="m144.352 323.061h12.801c4.142 0 7.5-3.358 7.5-7.5s-3.358-7.5-7.5-7.5h-12.801c-4.142 0-7.5 3.358-7.5 7.5s3.357 7.5 7.5 7.5z"/><path d="m342.926 138.451h-12.801c-4.142 0-7.5 3.358-7.5 7.5s3.358 7.5 7.5 7.5h12.801c4.142 0 7.5-3.358 7.5-7.5s-3.358-7.5-7.5-7.5z"/><path d="m342.926 180.853h-12.801c-4.142 0-7.5 3.358-7.5 7.5s3.358 7.5 7.5 7.5h12.801c4.142 0 7.5-3.358 7.5-7.5s-3.358-7.5-7.5-7.5z"/><path d="m330.125 238.256h12.801c4.142 0 7.5-3.358 7.5-7.5s-3.358-7.5-7.5-7.5h-12.801c-4.142 0-7.5 3.358-7.5 7.5s3.357 7.5 7.5 7.5z"/><path d="m330.125 280.658h12.801c4.142 0 7.5-3.358 7.5-7.5s-3.358-7.5-7.5-7.5h-12.801c-4.142 0-7.5 3.358-7.5 7.5s3.357 7.5 7.5 7.5z"/><path d="m330.125 323.061h12.801c4.142 0 7.5-3.358 7.5-7.5s-3.358-7.5-7.5-7.5h-12.801c-4.142 0-7.5 3.358-7.5 7.5s3.357 7.5 7.5 7.5z"/><path d="m430.295 75.492h-26.652v-11.397h8.208c7.829 0 14.198-6.369 14.198-14.198v-26.842c0-7.829-6.369-14.199-14.198-14.199h-125.929c-7.829 0-14.198 6.37-14.198 14.199v26.842c0 7.829 6.369 14.198 14.198 14.198h8.208v11.397h-76.259v-11.397h8.207c7.829 0 14.198-6.369 14.198-14.198v-26.842c0-7.829-6.369-14.199-14.198-14.199h-125.93c-7.829 0-14.198 6.37-14.198 14.199v26.842c0 7.829 6.369 14.198 14.198 14.198h8.208v11.397h-26.651c-45.053 0-81.705 36.653-81.705 81.704v244.416c0 45.052 36.652 81.704 81.705 81.704h1.07c1.918 11.241 11.723 19.828 23.503 19.828s21.585-8.586 23.503-19.828h252.439c1.918 11.241 11.723 19.828 23.503 19.828s21.585-8.586 23.503-19.828h1.07c45.052 0 81.705-36.652 81.705-81.704v-244.416c-.001-45.051-36.653-81.704-81.706-81.704zm-143.571-51.636h124.326v25.239h-124.326zm22.405 40.239h79.514v11.397h-79.514zm-208.179-40.239h124.326v25.239h-124.326zm22.406 40.239h79.515v11.397h-79.515zm0 153.141h79.515v165.221c0 12.979-10.559 23.537-23.537 23.537h-32.44c-12.979 0-23.537-10.559-23.537-23.537v-165.221zm-15 165.221c0 21.25 17.288 38.537 38.537 38.537h32.44c21.25 0 38.537-17.288 38.537-38.537v-193.226c0-4.142-3.358-7.5-7.5-7.5s-7.5 3.358-7.5 7.5v13.005h-79.515v-79.046h79.515v29.015c0 4.142 3.358 7.5 7.5 7.5s7.5-3.358 7.5-7.5v-29.015h76.259v259.267c0 21.25 17.288 38.537 38.537 38.537h32.44c21.25 0 38.537-17.288 38.537-38.537v-259.268h26.652c18.751 0 34.007 15.255 34.007 34.007v244.416c0 18.751-15.256 34.007-34.007 34.007h-2.644c-3.647-8.507-12.103-14.481-21.929-14.481s-18.282 5.975-21.929 14.481h-116.992c-4.142 0-7.5 3.358-7.5 7.5s3.358 7.5 7.5 7.5h115.073v17.697h-251.748v-17.697h99.648c4.142 0 7.5-3.358 7.5-7.5s-3.358-7.5-7.5-7.5h-101.567c-3.647-8.507-12.103-14.481-21.929-14.481s-18.282 5.975-21.929 14.481h-2.644c-18.751 0-34.007-15.255-34.007-34.007v-244.416c0-18.751 15.256-34.007 34.007-34.007h26.651zm200.773-165.221h79.514v165.221c0 12.979-10.559 23.537-23.537 23.537h-32.44c-12.979 0-23.537-10.559-23.537-23.537zm-194.003 262.059c0 4.879-3.969 8.849-8.849 8.849s-8.849-3.969-8.849-8.849v-34.309c0-4.879 3.969-8.849 8.849-8.849s8.849 3.969 8.849 8.849zm299.445 0c0 4.879-3.969 8.849-8.849 8.849s-8.849-3.969-8.849-8.849v-34.309c0-4.879 3.969-8.849 8.849-8.849s8.849 3.969 8.849 8.849zm82.429-77.683c0 36.781-29.923 66.704-66.705 66.704h-.725v-17.697h.725c27.023 0 49.007-21.984 49.007-49.007v-244.416c0-27.022-21.984-49.007-49.007-49.007h-62.018c-4.142 0-7.5 3.358-7.5 7.5s3.358 7.5 7.5 7.5h20.366v79.046h-79.514v-79.046h22.122c4.142 0 7.5-3.358 7.5-7.5s-3.358-7.5-7.5-7.5h-249.546c-27.023 0-49.007 21.984-49.007 49.007v244.416c0 27.022 21.984 49.007 49.007 49.007h.725v17.697h-.725c-36.782 0-66.705-29.923-66.705-66.704v-244.416c0-36.781 29.923-66.704 66.705-66.704h348.591c36.781 0 66.705 29.923 66.705 66.704v244.416z"/></g></g></svg>